<mxfile host="65bd71144e">
    <diagram id="T_rr_vH3T_Zj2dJ4vRbg" name="Screens">
        <mxGraphModel dx="657" dy="552" grid="1" gridSize="10" guides="1" tooltips="1" connect="1" arrows="1" fold="1" page="1" pageScale="1" pageWidth="1100" pageHeight="850" math="0" shadow="0">
            <root>
                <mxCell id="0"/>
                <mxCell id="1" parent="0"/>
            </root>
        </mxGraphModel>
    </diagram>
    <diagram id="Sg57-U5MvTpvXmKn-WWA" name="Scenes">
        <mxGraphModel dx="657" dy="552" grid="1" gridSize="10" guides="1" tooltips="1" connect="1" arrows="1" fold="1" page="1" pageScale="1" pageWidth="1100" pageHeight="850" math="0" shadow="0">
            <root>
                <mxCell id="EygVYQ8OEFmJ7SoNusYF-0"/>
                <mxCell id="EygVYQ8OEFmJ7SoNusYF-1" parent="EygVYQ8OEFmJ7SoNusYF-0"/>
            </root>
        </mxGraphModel>
    </diagram>
    <diagram id="5PbS5Pqwd8vVZCzxoG3U" name="Sprites">
        <mxGraphModel dx="657" dy="552" grid="1" gridSize="10" guides="1" tooltips="1" connect="1" arrows="1" fold="1" page="1" pageScale="1" pageWidth="1100" pageHeight="850" math="0" shadow="0">
            <root>
                <mxCell id="qZ7oE6tz1sFKhMKh3hGN-0"/>
                <mxCell id="qZ7oE6tz1sFKhMKh3hGN-1" parent="qZ7oE6tz1sFKhMKh3hGN-0"/>
            </root>
        </mxGraphModel>
    </diagram>
    <diagram id="q1-yvnY3Dvck-rz3jSEI" name="Page-4">
        <mxGraphModel dx="657" dy="552" grid="1" gridSize="10" guides="1" tooltips="1" connect="1" arrows="1" fold="1" page="1" pageScale="1" pageWidth="1100" pageHeight="850" math="0" shadow="0">
            <root>
                <mxCell id="ZXvdYEo8QiCHT45ScSsW-0"/>
                <mxCell id="ZXvdYEo8QiCHT45ScSsW-1" parent="ZXvdYEo8QiCHT45ScSsW-0"/>
            </root>
        </mxGraphModel>
    </diagram>
</mxfile>